Vertices:

v 0.25 0 0
v 0.25 0.7071 0.7071
v 0.25 1.0 0.0
v 0.25 0.7071 -0.7071
v 0.25 0.0 -1.0
v 0.25 -0.7071 -0.7071
v 0.25 -1.0 -0.0
v 0.25 -0.7071 0.7071
v 0.25 -0.0 1.0
v -0.25 0 0
v -0.25 0.7071 0.7071
v -0.25 1.0 0.0
v -0.25 0.7071 -0.7071
v -0.25 0.0 -1.0
v -0.25 -0.7071 -0.7071
v -0.25 -1.0 -0.0
v -0.25 -0.7071 0.7071
v -0.25 -0.0 1.0

Normals:

vn 0.7071 0.0 0.0
vn -0.7071 0.0 0.0
vn 0.0 0.3535 0.1465
vn 0.0 0.3535 0.1465
vn 0.7071 -0.0 0.0
vn -0.7071 0.0 0.0
vn 0.0 0.3535 -0.1465
vn 0.0 0.3535 -0.1465
vn 0.7071 0.0 0.0
vn -0.7071 0.0 0.0
vn 0.0 0.1465 -0.3535
vn 0.0 0.1465 -0.3535
vn 0.7071 0.0 0.0
vn -0.7071 0.0 -0.0
vn -0.0 -0.1465 -0.3535
vn -0.0 -0.1465 -0.3535
vn 0.7071 0.0 0.0
vn -0.7071 0.0 0.0
vn -0.0 -0.3535 -0.1465
vn -0.0 -0.3535 -0.1465
vn 0.7071 0.0 0.0
vn -0.7071 -0.0 0.0
vn 0.0 -0.3535 0.1465
vn 0.0 -0.3535 0.1465
vn 0.7071 0.0 0.0
vn -0.7071 0.0 0.0
vn 0.0 -0.1465 0.3535
vn 0.0 -0.1465 0.3535
vn 0.7071 0.0 -0.0
vn -0.7071 0.0 0.0
vn 0.0 0.1465 0.3535
vn 0.0 0.1465 0.3535

Faces:

f 1//1 3//1 2//1
f 10//2 11//2 12//2
f 2//3 3//3 11//3
f 3//4 12//4 11//4
f 1//5 4//5 3//5
f 10//6 12//6 13//6
f 3//7 4//7 12//7
f 4//8 13//8 12//8
f 1//9 5//9 4//9
f 10//10 13//10 14//10
f 4//11 5//11 13//11
f 5//12 14//12 13//12
f 1//13 6//13 5//13
f 10//14 14//14 15//14
f 5//15 6//15 14//15
f 6//16 15//16 14//16
f 1//17 7//17 6//17
f 10//18 15//18 16//18
f 6//19 7//19 15//19
f 7//20 16//20 15//20
f 1//21 8//21 7//21
f 10//22 16//22 17//22
f 7//23 8//23 16//23
f 8//24 17//24 16//24
f 1//25 9//25 8//25
f 10//26 17//26 18//26
f 8//27 9//27 17//27
f 9//28 18//28 17//28
f 1//29 2//29 9//29
f 10//30 18//30 11//30
f 9//31 2//31 18//31
f 2//32 11//32 18//32
